<?xml version="1.0" encoding="UTF-8" standalone="no"?>
<svg
   xmlns:svg="http://www.w3.org/2000/svg"
   xmlns="http://www.w3.org/2000/svg"
   version="1.1"
   width="570.70117"
   height="317.79135"
   id="svg3642">
  <defs
     id="defs3644" />
  <g
     transform="translate(-64.649422,-373.46651)"
     id="layer1">
    <path
       d="m 112.2262,388.95417 3.94664,0 -5.96292,28.05605 0.20719,0 c 2.88544,-4.78043 8.45421,-9.45476 15.83206,-9.45476 7.69116,0 10.9556,4.36101 8.76751,14.64958 l -8.70687,40.94202 -3.94665,0 8.30767,-39.07229 c 2.05165,-9.66196 0.5407,-12.98705 -6.21559,-12.98705 -8.31272,0 -14.64453,7.79223 -16.65575,17.247 l -7.39807,34.81234 -3.951699,0 15.776479,-74.19289 z m -5.53339,236.75678 c 0.77821,0.10613 2.56708,0.29309 3.2695,0.29815 7.27173,0.0657 10.56649,-4.47725 11.94605,-10.69789 l 22.649,-102.31969 11.79445,0.01 0.76305,-3.52722 -11.77929,-0.01 2.67321,-12.12798 -0.005,0 0.2274,-1.02582 c 0.83379,-3.82538 2.60751,-5.73553 4.76528,-6.53395 0.46996,-0.17687 0.9096,-0.36889 1.69792,-0.47502 0.89443,-0.12633 1.37955,-0.15665 1.9051,-0.15665 0.64682,0.005 0.73778,0.0303 1.23806,0.0757 1.46547,0.13139 2.86524,0.8338 3.36046,0.95003 l 0.76811,-3.52723 c -0.57608,-0.14148 -1.67771,-0.6822 -3.56259,-0.84896 -0.74284,-0.0708 -1.26839,-0.096 -1.95059,-0.101 -0.758,-0.005 -1.5261,0.005 -2.19819,0.101 -0.78832,0.10613 -1.76361,0.379 -2.44076,0.6064 -4.31554,1.46041 -6.52384,5.27568 -7.57493,10.09149 l -0.17181,0.78326 -2.67826,12.18863 -9.97526,0 -0.74284,3.52721 9.93988,0 -22.69447,102.49662 c -1.21785,5.49296 -4.37113,7.12013 -7.79728,6.9938 -0.54576,-0.0202 -2.13756,-0.19708 -2.68332,-0.26278 l -0.74283,3.49185 z m 12.8794,-89.25735 c -3.30993,15.57939 -6.44299,25.05437 -16.82757,25.05437 -10.384574,0 -9.277897,-10.43006 -6.069037,-25.05437 3.057261,-13.91685 7.175717,-25.03922 16.867997,-25.15544 9.25768,-0.11113 9.3638,9.46992 6.02861,25.15544 m 3.07242,-25.10997 c -1.78887,-2.2083 -4.4924,-3.33518 -8.03984,-3.33518 -14.06845,0 -18.904478,13.64396 -22.027432,28.38956 -1.985955,9.38402 -3.759672,19.82924 0.429533,24.99879 1.85457,2.2841 4.689483,3.39583 8.676559,3.39583 14.77591,0 18.72256,-12.90113 22.03249,-28.49568 2.67826,-12.59289 2.32958,-20.75905 -1.07131,-24.95332 m 48.16676,-79.15171 c 1.87478,-9.86408 2.61257,-21.21385 -7.41828,-21.08751 -10.15718,0.13139 -14.8315,14.02803 -16.17568,21.08751 l 23.59396,0 z m -24.26606,3.53228 c -1.65749,8.72709 -4.68443,25.13522 6.65018,25.13522 10.21782,0 14.1392,-11.42556 14.8315,-15.47327 l 3.52722,0 c -1.66254,8.30766 -7.70126,19.00555 -18.66192,19.00555 -12.5373,0 -13.52269,-11.42556 -10.01063,-29.91568 3.15832,-16.62037 10.40479,-26.90388 21.3705,-26.90388 11.42051,0 13.12348,10.59681 9.78828,28.15206 l -27.49513,0 z m -59.633757,-42.7971 -17.262151,0 0.838851,-3.94665 37.768537,0 -0.83885,3.94665 -16.145369,0 -14.922463,70.22097 -4.361018,0 14.922463,-70.22097 z m 516.188877,86.17685 12.81017,0 -17.99994,84.67853 -12.81017,0 17.99994,-84.67853 z m -36.90089,50.99661 c -3.8759,2.61256 -11.31945,4.15384 -15.49349,5.9326 -4.05276,1.77877 -6.40256,5.57381 -7.40817,10.31889 -1.137,5.33631 0.56597,9.60636 5.90229,9.60636 7.71136,0 12.73942,-5.81132 14.73043,-15.18018 l 2.26894,-10.67767 z m 7.7619,20.40026 c -0.50533,2.37001 0.46491,4.50757 2.3599,4.50757 0.8338,0 1.68781,-0.12128 2.21336,-0.35879 l -1.76361,8.30261 c -1.69286,0.71252 -4.12351,1.54127 -6.6148,1.54127 -5.69004,0 -9.95505,-2.25379 -9.00502,-8.41884 l -0.23246,0 c -4.77538,6.28633 -10.4149,9.36886 -17.88371,9.36886 -10.1976,0 -15.39747,-5.69004 -12.80006,-17.90898 3.02694,-14.23015 9.82366,-17.19646 19.0864,-20.04147 l 10.54124,-2.7288 c 4.90171,-1.30375 8.02467,-2.60752 9.2122,-8.18133 1.23301,-5.81132 0,-9.49014 -6.76134,-9.49014 -8.54013,0 -11.0112,6.04883 -12.32001,12.21893 l -12.09765,0 c 2.87534,-13.52269 10.0359,-20.9915 26.87862,-20.9915 11.26387,0 19.34413,4.38629 16.94885,15.6552 l -7.76191,36.52541 z m -66.87011,-50.52261 12.81017,0 -2.11733,9.9601 0.23749,0 c 4.35597,-7.11508 10.06117,-11.62264 17.29248,-11.62264 1.42504,0 2.20325,0.2375 2.98651,0.47501 l -2.77427,13.04768 c -0.89949,-0.23751 -3.05222,-0.71253 -5.18471,-0.71253 -5.81133,0 -13.36099,2.60753 -15.88259,14.46768 l -8.1207,38.18796 -12.80511,0 13.55806,-63.80326 z m -37.54973,56.33343 -0.35878,0 c -4.41155,5.69004 -11.18805,9.13136 -18.30314,9.13136 -9.49014,0 -14.95784,-4.38629 -11.46094,-20.87023 l 9.48004,-44.59557 12.81017,0 -9.72765,45.77805 c -1.516,7.11508 1.18248,9.49014 6.64007,9.49014 5.45253,0 11.19311,-3.55754 12.70406,-10.67262 l 9.48004,-44.59557 12.80511,0 -13.56311,63.80325 -12.09767,0 1.5918,-7.46881 z m -61.71927,-56.33343 8.77762,0 3.85569,-18.14649 12.81018,0 -3.85569,18.14649 10.43005,0 -2.01121,9.48509 -10.44018,0 -8.09036,38.07173 c -1.05615,4.98258 -0.0151,6.76135 4.37112,6.76135 1.90005,0 3.46658,-0.11623 4.70464,-0.35879 l -2.01627,9.49014 c -2.88039,0.71252 -6.51374,1.06626 -10.54629,1.06626 -8.65634,0 -12.42106,-2.37001 -9.65184,-15.41769 l 8.41883,-39.613 -8.77257,0 2.01628,-9.48509 z m -11.78082,40.5605 c -4.08308,15.30146 -11.34471,24.90783 -27.11613,24.90783 -18.50022,0 -20.79443,-13.7602 -16.585,-33.56923 4.20941,-19.80398 12.35032,-33.55911 30.85558,-33.55911 19.14199,-0.23752 18.76299,14.94267 17.07013,22.8865 l -12.80511,0 c 1.25827,-5.92755 1.23806,-13.63893 -6.28634,-13.40142 -9.24759,0 -13.02746,9.96515 -16.02409,24.07403 -3.00167,14.11899 -3.45647,24.07909 5.79112,24.07909 7.08981,0.11622 10.96065,-5.81132 13.0022,-15.41769 l 12.09765,0 z m -70.86628,15.77293 -0.35879,0 c -4.41155,5.69004 -11.18805,9.13136 -18.30314,9.13136 -9.49013,0 -14.96288,-4.38629 -11.45587,-20.87023 l 9.47497,-44.59557 12.81018,0 -9.7327,45.77805 c -1.51095,7.11508 1.18752,9.49014 6.64511,9.49014 5.45254,0 11.19311,-3.55754 12.70406,-10.67262 l 9.48004,-44.59557 12.80511,0 -13.55806,63.80325 -12.09765,0 1.58674,-7.46881 z m -57.37593,-56.33343 12.81017,0 -2.11734,9.9601 0.2375,0 c 4.35597,-7.11508 10.06117,-11.62264 17.29247,-11.62264 1.42504,0 2.20325,0.2375 2.98652,0.47501 l -2.77428,13.04768 c -0.89949,-0.23751 -3.0522,-0.71253 -5.1847,-0.71253 -5.81132,0 -13.36605,2.60753 -15.88765,14.46768 l -8.11564,38.18796 -12.81017,0 13.56312,-63.80326 z m -41.76875,0 8.77762,0 3.85569,-18.14649 12.81017,0 -3.85569,18.14649 10.43512,0 -2.01628,9.48509 -10.44016,0 -8.09038,38.07173 c -1.05614,4.98258 -0.0101,6.76135 4.37618,6.76135 1.895,0 3.46153,-0.11623 4.69959,-0.35879 l -2.01627,9.49014 c -2.8804,0.71252 -6.51374,1.06626 -10.54124,1.06626 -8.66139,0 -12.42612,-2.37001 -9.65184,-15.41769 l 8.41883,-39.613 -8.77762,0 2.01628,-9.48509 z m -51.05373,37.59571 -0.45479,2.1325 c -2.19315,10.31889 1.20774,15.53897 10.5766,15.53897 8.53506,0 14.09372,-6.04882 15.4278,-12.33516 1.88994,-8.89385 -1.78383,-12.81017 -8.89385,-15.0589 l -8.57044,-3.20381 c -11.3245,-4.74507 -15.30146,-11.14764 -12.72932,-23.24529 3.27455,-15.41768 15.52381,-23.95779 31.41651,-23.95779 21.70402,0 21.08752,13.51763 19.21779,22.29526 l -0.39922,1.90005 -13.52269,0 0.379,-1.77878 c 1.63728,-7.71137 -0.8439,-12.21894 -9.26274,-12.21894 -5.81132,0 -12.06733,3.20382 -13.98254,12.21894 -1.53621,7.2313 1.35934,10.91013 9.64174,14.34639 l 8.42388,3.32509 c 11.07184,4.265 14.90226,10.78883 12.43118,22.41148 -3.83042,18.03026 -16.32729,25.49907 -33.40752,25.49907 -20.9915,0 -22.76016,-13.99265 -20.23856,-25.8528 l 0.42448,-2.01628 13.52269,0 z m 311.65057,87.84293 0.74789,-3.44131 c 1.7434,-8.06006 0.41942,-14.23016 -6.94831,-14.23016 -8.33294,0 -12.6131,8.0651 -14.41208,16.36771 l -0.28299,1.30376 20.89549,0 z m -22.79554,8.77762 -0.79337,3.67377 c -1.84951,8.54011 -3.12295,19.45024 6.65522,19.45024 9.30823,0 12.64848,-10.44017 13.47217,-14.23016 l 12.32,0 c -3.05222,14.11393 -14.77087,23.00778 -27.80844,23.00778 -8.6614,0 -22.98756,-3.7243 -16.7366,-32.61415 3.61817,-16.72144 11.09203,-34.5142 31.50746,-34.5142 18.12121,0 20.63777,10.67768 16.78714,28.46537 l -1.46042,6.76135 -33.94316,0 z m -31.68433,-8.77762 0.74788,-3.44131 c 1.7434,-8.06006 0.41943,-14.23016 -6.94831,-14.23016 -8.33294,0 -12.6131,8.0651 -14.41207,16.36771 l -0.28299,1.30376 20.89549,0 z m -22.79554,8.77762 -0.79338,3.67377 c -1.84951,8.54011 -3.12295,19.45024 6.66028,19.45024 9.30317,0 12.64847,-10.44017 13.46711,-14.23016 l 12.32,0 c -3.05221,14.11393 -14.76581,23.00778 -27.80844,23.00778 -8.6614,0 -22.98251,-3.7243 -16.7366,-32.61415 3.61818,-16.72144 11.09709,-34.5142 31.50747,-34.5142 18.12121,0 20.64282,10.67768 16.78713,28.46537 l -1.46041,6.76135 -33.94316,0 z m 165.86775,-14.94419 0.35374,-1.66255 c 1.08646,-5.0988 0.3133,-9.84387 -6.32677,-9.84387 -5.0988,0 -9.63668,2.37506 -10.90002,8.30261 -1.05614,4.98258 0.76811,6.99885 7.02412,9.36886 l 7.57999,2.84502 c 8.80794,3.20381 12.11281,8.30261 9.9702,18.38399 -2.9006,13.63892 -14.09877,19.45024 -27.02517,19.45024 -16.13021,0 -19.40475,-7.47386 -16.78208,-19.80902 l 0.50533,-2.37001 11.38513,0 -0.42953,2.02133 c -1.56653,7.34753 0.18697,11.38008 7.53956,11.38008 6.99885,0 11.19311,-3.55754 12.43117,-9.36886 1.00561,-4.74002 -0.82875,-7.8276 -5.00783,-9.36886 l -9.6569,-3.67377 c -8.89892,-3.32508 -11.89553,-8.18638 -9.72765,-18.38399 2.54182,-11.97637 12.38568,-17.55524 25.5496,-17.55524 16.25148,0 17.90897,9.49014 16.22116,17.43902 l -0.6064,2.84502 -12.09765,0 z m -60.66919,-18.6215 12.81018,0 -2.11734,9.96516 0.23245,0 c 4.36101,-7.12014 10.06116,-11.6277 17.29752,-11.6277 1.42504,0 2.20325,0.24256 2.98147,0.47501 l -2.76923,13.04768 c -0.89949,-0.2375 -3.05221,-0.71252 -5.18976,-0.71252 -5.81133,0 -13.36099,2.61257 -15.8826,14.46767 l -8.11564,38.18796 -12.81017,0 13.56312,-63.80326 z m -164.55187,0 12.0926,0 -1.58674,7.47387 0.35879,0 c 4.41155,-5.6951 11.1931,-9.13641 18.30818,-9.13641 9.72259,0 14.95784,4.39134 12.20883,17.31774 l -10.23298,48.14806 -12.81017,0 9.30316,-43.76178 c 1.76361,-8.29756 -0.0455,-11.50136 -6.44804,-11.50136 -5.22008,0 -11.08193,4.15383 -12.8506,12.45139 l -9.09598,42.81175 -12.81018,0 13.56313,-63.80326 z m -21.62064,-20.88488 12.81017,0 -2.72373,12.81018 -12.81018,0 2.72374,-12.81018 z m -4.63895,20.88539 12.81017,0 -13.56312,63.80326 -12.81018,0 13.56313,-63.80326 z m -48.31432,53.13064 c 9.9601,0 13.69955,-12.56762 15.84722,-22.649 2.21336,-10.44016 3.35541,-21.94153 -5.53844,-21.94153 -9.25264,0 -12.81018,9.48509 -15.33178,21.34524 -2.31948,10.91013 -4.46714,23.24529 5.023,23.24529 m -12.44128,16.1302 c -0.8338,3.91128 1.94553,7.5901 7.63557,7.5901 6.64512,0 11.77424,-4.62379 13.34078,-11.97638 l 2.19313,-10.31889 -0.2375,0 c -3.55755,5.57382 -10.16729,8.77763 -16.3374,8.77763 -14.94267,0 -15.96344,-14.71023 -12.25936,-32.14419 2.97136,-13.99265 9.1162,-32.85166 27.26268,-32.85166 7.47387,0 11.77425,4.86635 11.97637,9.49015 l 0.23751,0 1.66254,-7.8276 12.09766,0 -12.90618,60.72073 c -3.29983,15.53897 -11.93595,24.90783 -29.13241,24.90783 -18.97523,0 -18.74278,-11.14763 -17.63105,-16.36772 l 12.09766,0 z m -53.67084,-69.26135 12.09765,0 -1.59179,7.47387 0.35878,0 c 4.41155,-5.6951 11.19311,-9.13641 18.30819,-9.13641 9.7226,0 14.95784,4.39134 12.20883,17.31774 l -10.23298,48.14806 -12.80512,0 9.29812,-43.76178 c 1.76361,-8.29756 -0.0455,-11.50136 -6.44804,-11.50136 -5.22009,0 -11.08194,4.15383 -12.84555,12.45139 l -9.10104,42.81175 -12.81017,0 13.56312,-63.80326 z m -51.42211,-20.87427 45.77805,0 -2.42054,11.38514 -32.25536,0 -4.99268,23.48279 30.36036,0 -2.42054,11.38514 -30.36036,0 -5.74563,27.04033 33.20538,0 -2.42054,11.38514 -46.72808,0 17.99994,-84.67854 z m 430.34453,-180.41374 12.09765,0 -1.59178,7.47387 0.35878,0 c 4.41155,-5.69509 11.1931,-9.1364 18.30819,-9.1364 9.72765,0 14.96289,4.39133 12.21388,17.31773 l -10.23298,48.15312 -12.81017,0 9.30316,-43.76684 c 1.76361,-8.3026 -0.0505,-11.50136 -6.45309,-11.50136 -5.22009,0 -11.08194,4.14878 -12.84555,12.45138 l -9.10104,42.81682 -12.81017,0 13.56313,-63.80832 z m -44.12916,55.97769 c 9.36887,0 12.69395,-7.8276 16.14536,-24.07404 3.00168,-14.11392 3.45648,-24.07402 -5.91238,-24.07402 -9.24758,0 -13.02747,9.9601 -16.02914,24.07402 -3.45143,16.24644 -3.45648,24.07404 5.79616,24.07404 m 12.24925,-57.6382 c 18.6215,0 20.91571,13.75514 16.70629,33.56416 -4.20941,19.80398 -13.18411,33.56418 -30.97181,33.56418 -17.67148,0 -20.79948,-13.7602 -16.58502,-33.56418 4.20943,-19.80902 12.35033,-33.56416 30.85054,-33.56416 m -115.81811,57.99496 -0.35374,0 c -4.41155,5.6951 -11.1931,9.13135 -18.30819,9.13135 -9.49013,0 -14.95783,-4.38627 -11.45587,-20.87022 l 9.48002,-44.59558 12.80513,0 -9.72765,45.77807 c -1.516,7.11507 1.18754,9.49014 6.64006,9.49014 5.4576,0 11.19311,-3.55754 12.70406,-10.67263 l 9.48004,-44.59557 12.80511,0 -13.55806,63.80831 -12.09765,0 1.58674,-7.47386 z m -60.4711,-56.33445 8.77762,0 3.85569,-18.14648 12.81018,0 -3.86075,18.14648 10.44017,0 -2.01627,9.49014 -10.44018,0 -8.09036,38.06669 c -1.05615,4.98257 -0.0151,6.76135 4.37617,6.76135 1.895,0 3.46153,-0.12125 4.69959,-0.35374 l -2.01627,9.48509 c -2.88039,0.71251 -6.50868,1.06625 -10.54629,1.06625 -8.65634,0 -12.42106,-2.37001 -9.65184,-15.41769 l 8.42389,-39.60795 -8.77763,0 2.01628,-9.49014 z m 134.7787,-20.87426 12.81017,0 -2.72373,12.81018 -12.81018,0 2.72374,-12.81018 z m -4.63895,20.87528 12.81017,0 -13.56312,63.80326 -12.80511,0 13.55806,-63.80326 z m -39.87274,-10e-4 8.77763,0 3.85568,-18.14649 12.81018,0 -3.85569,18.14649 10.43511,0 -2.01627,9.49014 -10.44018,0 -8.08531,38.06668 c -1.0612,4.98258 -0.0151,6.76135 4.37113,6.76135 1.90005,0 3.46152,-0.12125 4.69958,-0.35373 l -2.01627,9.48508 c -2.88039,0.71252 -6.50868,1.06625 -10.54123,1.06625 -8.6614,0 -12.42612,-2.37001 -9.6569,-15.41768 l 8.42389,-39.60795 -8.77762,0 2.01627,-9.49014 z m -104.98632,-20.87428 12.81017,0 -2.72374,12.81018 -12.81017,0 2.72374,-12.81018 z m -4.6339,20.87528 12.80512,0 -13.56312,63.80326 -12.81018,0 13.56818,-63.80326 z m -39.88184,-10e-4 8.77762,0 3.85569,-18.14649 12.81018,0 -3.85569,18.14649 10.43511,0 -2.01627,9.49014 -10.43512,0 -8.09037,38.06668 c -1.0612,4.98258 -0.0151,6.76135 4.37112,6.76135 1.90005,0 3.46658,-0.12125 4.69959,-0.35373 l -2.01627,9.48508 c -2.88039,0.71252 -6.50868,1.06625 -10.54123,1.06625 -8.6614,0 -12.42612,-2.37001 -9.6569,-15.41768 l 8.42389,-39.60795 -8.77763,0 2.01628,-9.49014 z m -19.60184,18.61897 0.35374,-1.65748 c 1.08141,-5.0988 0.3133,-9.84388 -6.33183,-9.84388 -5.0988,0 -9.63162,2.37001 -10.89496,8.30261 -1.0612,4.97753 0.76811,6.9938 7.02413,9.36887 l 7.57492,2.84501 c 8.80795,3.19876 12.11283,8.30261 9.97021,18.37894 -2.90061,13.64397 -14.09877,19.4553 -27.02517,19.4553 -16.12515,0 -19.39971,-7.47387 -16.78209,-19.80903 l 0.50534,-2.37001 11.38513,0 -0.42953,2.01627 c -1.56148,7.35259 0.19203,11.38514 7.54461,11.38514 6.99885,0 11.19311,-3.55754 12.42613,-9.36886 1.01066,-4.74508 -0.8237,-7.8276 -5.00785,-9.36886 l -9.65184,-3.67882 c -8.89891,-3.32005 -11.90058,-8.18135 -9.73271,-18.37895 2.54688,-11.98143 12.39075,-17.55525 25.55466,-17.55525 16.24644,0 17.90897,9.48509 16.22116,17.43397 l -0.6064,2.84502 -12.09765,0 z m -79.41702,-18.61897 12.09766,0 -1.5918,7.47386 0.35879,0 c 4.41155,-5.69509 11.19311,-9.1364 18.30819,-9.1364 9.72259,0 14.95783,4.39134 12.20882,17.31774 l -10.23297,48.15311 -12.81018,0 9.30317,-43.76684 c 1.76361,-8.3026 -0.0455,-11.50136 -6.44804,-11.50136 -5.22008,0 -11.08194,4.14879 -12.84555,12.45139 l -9.10103,42.81681 -12.81018,0 13.56312,-63.80831 z m -21.13754,-20.87325 13.52269,0 -17.99993,84.67854 -13.5227,0 17.99994,-84.67854 z"
       id="path218"
       style="fill:#000000;fill-opacity:1;fill-rule:nonzero;stroke:none" />
  </g>
</svg>
